<svg xmlns="http://www.w3.org/2000/svg" viewBox="0 0 60 60"><defs><style>.cls-1{fill:#f3b520;}.cls-2{fill:#2b2822;}</style></defs><g id="Слой_2" data-name="Слой 2"><g id="Слой_1-2" data-name="Слой 1"><circle class="cls-1" cx="30" cy="30" r="30"/><path class="cls-2" d="M14.73,42.28a4.11,4.11,0,0,1,1.1-2.87,3.21,3.21,0,0,1,.56-.6A3.93,3.93,0,0,0,18,35c-.11-3.86,0-7.73,0-11.59a1.52,1.52,0,0,0-.54-1.25,18.9,18.9,0,0,1-1.53-1.57,4.32,4.32,0,0,1,5.92-6.26c.34.28.51.31.87,0a4.32,4.32,0,0,1,6,6.21c-.57.63-1.18,1.22-1.79,1.81a.93.93,0,0,0-.3.72q0,6.9,0,13.79a.91.91,0,0,0,.31.72c.57.55,1.15,1.11,1.69,1.7a4.3,4.3,0,0,1,0,5.95,4.25,4.25,0,0,1-5.94.31c-.37-.32-.53-.16-.81.06a4.33,4.33,0,0,1-7.07-3.35Zm13.61,1.34c0-.2-.2-.25-.33-.33-2.85-1.81-5.72-3.6-8.57-5.42-.62-.4-.74.24-1,.48s.16.38.32.49q4.08,2.82,8.2,5.61c.18.13.35.45.63.22A2.41,2.41,0,0,0,28.34,43.62ZM19.05,22.35l.49-.31c2.79-1.76,5.56-3.52,8.36-5.26.43-.26.56-.49.2-.88S27.7,15,27,15.46c-2.75,1.93-5.54,3.81-8.3,5.72-.14.09-.49.14-.33.41A4.74,4.74,0,0,0,19.05,22.35Zm6.31,6.74a1.49,1.49,0,0,0-.78-1.91c-1.69-1.08-3.32-2.25-5-3.38-.16-.1-.34-.43-.55-.07a1.61,1.61,0,0,0,.45,1.67l3.42,2.15Zm0,1.8c-1.89,1.19-3.7,2.38-5.56,3.48A1.28,1.28,0,0,0,19,35.82c0,.2-.1.45.14.56s.33-.12.47-.22c1.68-1.14,3.32-2.33,5-3.41A1.47,1.47,0,0,0,25.37,30.89ZM18.09,14.61l4,2.73a.3.3,0,0,0,.37,0l3.85-2.64a2.94,2.94,0,0,0-3.18.73c-.88.81-.88.81-1.74,0A3.28,3.28,0,0,0,18.09,14.61Zm.12,30.68c.13.22.3.2.45.22a3.52,3.52,0,0,0,3.18-1.41c.28-.33.48-.37.78,0a4.06,4.06,0,0,0,1.55,1.2,3,3,0,0,0,2.19.06l-3.85-2.62c-.16-.11-.29-.19-.48-.06Zm4-13.75.21-.09,2-1.28c.27-.16.16-.26,0-.38l-2-1.24a.42.42,0,0,0-.5,0c-.63.41-1.26.81-1.91,1.2-.32.2-.2.32,0,.47L22,31.39C22,31.45,22.15,31.49,22.23,31.54Zm-1-13.45L17.7,15.67c-.78-.53-.95-.48-1.43.35-.18.3-.17.47.15.66.86.52,1.7,1.07,2.55,1.6C20.08,19,20.08,19,21.24,18.09Zm0,23.78c-.35-.24-.66-.43-.94-.65a.46.46,0,0,0-.62,0c-1.09.7-2.19,1.4-3.3,2.07-.45.28-.25.55,0,.77s.33.9.89.53C18.59,43.73,19.9,42.81,21.26,41.87Zm-1-4.81c1.85,1.42,1.9,1.42,3.51.32l.06,0c.32-.17.29-.3,0-.52-1.55-1.16-1.54-1.17-3.15-.07Zm0-14.16c1.91,1.45,1.91,1.45,3.51.3l.06,0c.29-.16.34-.29,0-.52-1.5-1.09-1.5-1.1-3-.12C20.64,22.63,20.48,22.75,20.26,22.9Zm5.16-3.28,1.34.92a.3.3,0,0,0,.36.05,3.35,3.35,0,0,0,1.43-2.95Zm3.15,22.74a2.76,2.76,0,0,0-.64-2.13c-.83-1-.83-1-1.9-.29-.19.12-.37.26-.61.43Zm-12.71,0,3.19-2-1.3-.89c-.13-.09-.25-.2-.42,0A3.48,3.48,0,0,0,15.86,42.38Zm0-24.78a3.06,3.06,0,0,0,.61,2c.86,1.14.9,1.15,2.06.33.16-.11.37-.17.46-.41Zm9.59,15.91c-.72.5-1.31.91-1.92,1.31-.27.17-.3.3,0,.48.48.31.95.63,1.42,1s.52.14.52-.29C25.44,35.2,25.44,34.43,25.44,33.51Zm0-7c0-.92,0-1.7,0-2.47,0-.45-.16-.53-.53-.27s-.94.65-1.42,1c-.21.15-.31.26,0,.44C24.1,25.54,24.71,26,25.44,26.47Zm-4.22,1.29-2.17-1.35v2.71Zm-2.17,3.1v2.73l2.16-1.37ZM23.3,21l1.83,1.16c.48.31.53-.26.79-.4.1-.05.35-.2.14-.36a8.56,8.56,0,0,0-1.58-1.06c-.35-.16-.64.34-1,.48A1,1,0,0,0,23.3,21Zm0,18c.26.17.48.33.71.47s.37.34.66.12.86-.6,1.29-.9c.12-.09.27-.14.12-.36-.36-.56-.68-.66-1.24-.31Z"/><path class="cls-2" d="M41,30c0,1.28.06,2.57,0,3.84,0,.74.53.83.91,1.12s.52-.16.68-.34c.35-.38.5-.06.7.13s.46.38.08.63-.43.66-.09,1.1a4.42,4.42,0,0,1,.84,2.08c.06.42.18.63.63.56s.6.08.61.56-.26.56-.63.52-.54.1-.6.52A4.74,4.74,0,0,1,43.19,43c-.28.36-.29.62.1.88s.24.47,0,.73-.47.44-.74,0-.52-.39-.89-.1a4.82,4.82,0,0,1-2.26.94c-.41.06-.56.22-.49.61s-.16.55-.58.56-.55-.2-.5-.57-.1-.53-.5-.59a4.83,4.83,0,0,1-2.32-1c-.36-.29-.6-.23-.84.1s-.48.29-.78,0-.38-.48,0-.73.4-.51.11-.89a4.58,4.58,0,0,1-.94-2.26c-.05-.47-.25-.58-.65-.52s-.53-.13-.53-.54.12-.6.54-.54.59-.08.65-.53a4.8,4.8,0,0,1,1-2.31c.23-.3.25-.51-.06-.73s-.42-.49,0-.85.54-.24.81,0,.26.48.53.23.92-.31.91-1c0-2,0-4,0-6,0-.55,0-1.1,0-1.65a1,1,0,0,0-.48-1c-.46-.29-.76-.4-1.11.1s-.48.05-.68-.13-.46-.39-.08-.63c.54-.35.39-.69.07-1.11a4.67,4.67,0,0,1-.84-2.15c-.06-.38-.18-.52-.56-.48s-.64,0-.63-.52.16-.62.59-.55.54-.11.6-.52A4.67,4.67,0,0,1,33.45,17c.28-.37.3-.63-.08-.89s-.34-.45,0-.74.49-.45.78,0,.53.36.89.08a5,5,0,0,1,2.33-.94c.4-.06.5-.22.45-.57s.08-.58.55-.59.58.22.53.62.12.49.48.55a5.16,5.16,0,0,1,2.37,1c.32.26.52.18.73-.09s.46-.4.8,0,.38.53,0,.8-.32.49-.06.82a4.84,4.84,0,0,1,.93,2.26c.06.47.24.59.65.54s.59,0,.58.5-.15.64-.59.57-.59.1-.65.55a4.68,4.68,0,0,1-.94,2.25c-.27.36-.26.59.09.83s.3.49,0,.8-.48.31-.76,0c-.13-.16-.28-.54-.58-.27s-.93.3-.92,1C41,27.33,41,28.66,41,30ZM38.34,15.53a4.82,4.82,0,0,0,0,9.63,4.82,4.82,0,1,0,0-9.63Zm-.09,28.92a4.86,4.86,0,0,0,4.91-4.77,4.91,4.91,0,0,0-4.7-4.86,4.82,4.82,0,1,0-.21,9.63ZM39.9,33.94V26.38c0-.2,0-.35-.3-.28A5.77,5.77,0,0,1,36.77,26V34A5.94,5.94,0,0,1,39.9,33.94Z"/><path class="cls-2" d="M40.44,21.94c.12.48-.11.56-.51.56s-.58-.13-.57-.58.14-.54.55-.54S40.58,21.49,40.44,21.94Z"/><path class="cls-2" d="M36.73,21.4c.5-.11.53.18.55.57s-.24.5-.61.53-.5-.18-.51-.55S36.27,21.3,36.73,21.4Z"/><path class="cls-2" d="M37.25,18.68c.11.5-.1.6-.54.61s-.54-.17-.55-.58.11-.57.53-.54S37.43,18.16,37.25,18.68Z"/><path class="cls-2" d="M40.45,18.69c0,.37,0,.63-.47.6s-.65,0-.63-.53.11-.61.58-.59S40.55,18.26,40.45,18.69Z"/><path class="cls-2" d="M36.69,38.58c-.51.12-.5-.2-.52-.58s.13-.52.53-.52.59.1.59.57S37.14,38.67,36.69,38.58Z"/><path class="cls-2" d="M40,37.5c.47-.11.49.16.51.54s-.16.57-.58.57-.52-.18-.53-.57S39.52,37.43,40,37.5Z"/><path class="cls-2" d="M36.69,40.72c.44-.09.6.06.59.53s-.13.57-.57.56-.58-.07-.54-.52S36.16,40.59,36.69,40.72Z"/><path class="cls-2" d="M39.85,40.72c.42-.07.65,0,.62.48s0,.66-.53.61c-.35,0-.63,0-.58-.5S39.31,40.55,39.85,40.72Z"/><path class="cls-2" d="M38.87,27.86c.12.54-.22.51-.6.54s-.5-.2-.5-.57.11-.56.54-.56S39,27.39,38.87,27.86Z"/><path class="cls-2" d="M38.28,32.69c-.57.11-.47-.29-.51-.63-.05-.52.28-.45.6-.47.47,0,.51.18.52.57S38.7,32.76,38.28,32.69Z"/></g></g></svg>