<svg id="Слой_1" data-name="Слой 1" xmlns="http://www.w3.org/2000/svg" viewBox="0 0 30 30"><defs><style>.cls-1{fill:#d5990a;}.cls-2{fill:#fff;}</style></defs><circle class="cls-1" cx="15" cy="15" r="15"/><path class="cls-2" d="M10.18,15.62h2.2v9a.32.32,0,0,0,.32.32h3.71a.32.32,0,0,0,.33-.32v-9h2.52a.32.32,0,0,0,.32-.28L20,12.05a.31.31,0,0,0-.31-.36H16.74V9.61c0-.63.34-.95,1-.95h1.9A.32.32,0,0,0,20,8.34v-3A.32.32,0,0,0,19.65,5H16.91A5,5,0,0,0,13.63,6.2a3.46,3.46,0,0,0-1.14,3.06V11.7H10.18a.32.32,0,0,0-.32.32V15.3A.32.32,0,0,0,10.18,15.62Z"/></svg>