<svg xmlns="http://www.w3.org/2000/svg" viewBox="0 0 60 60"><defs><style>.cls-1{fill:#f3b520;}.cls-2{fill:#292622;}</style></defs><g id="Слой_2" data-name="Слой 2"><g id="Слой_1-2" data-name="Слой 1"><circle class="cls-1" cx="30" cy="30" r="30"/><path class="cls-2" d="M17.63,33.07a18.26,18.26,0,0,1,1.81-7.34,1,1,0,0,0,.13-.65,8.54,8.54,0,0,1,1.14-5.9,30.53,30.53,0,0,0,1.51-3.29c.64-1.56,1.9-1.76,3-.49a12,12,0,0,1,2.12,3.79.69.69,0,0,0,.84.56,20,20,0,0,1,3.55,0,.74.74,0,0,0,.91-.57,12.34,12.34,0,0,1,1.74-3.31,5.64,5.64,0,0,1,.72-.82,1.46,1.46,0,0,1,2.48.49c.8,1.91,1.8,3.73,2.58,5.65a7,7,0,0,1,.28,3.57,2.16,2.16,0,0,0,.2,1.17,16.42,16.42,0,0,1,1.53,9.5c-.36,2.13-1.69,3.8-3,5.46a10.9,10.9,0,0,1-6.77,4.3A11.31,11.31,0,0,1,20.7,40.77a13.54,13.54,0,0,1-2.95-5.48A13.93,13.93,0,0,1,17.63,33.07Zm9.88,10.65a.16.16,0,0,0,.23.05l-.12-.16a6,6,0,0,1-1-3.14,1.66,1.66,0,0,0-.72-1.59,2.77,2.77,0,0,1-1-1.46,22.14,22.14,0,0,1-.75-2.56c-.11-.47,0-.85.5-1s.74.2.85.66c.19.7.36,1.41.6,2.1.52,1.52,1.19,1.85,2.7,1.37.19-.06.48,0,.5-.35s-.21-.32-.37-.43a1.75,1.75,0,0,1-.88-1.52c0-.87.55-1.4,1.55-1.43,1.62,0,2.3.34,2.33,1.33a1.76,1.76,0,0,1-1,1.67c-.17.1-.29.19-.27.42s.2.22.35.27c1.12.38,1.95.44,2.58-.6a.62.62,0,0,1,1-.15.64.64,0,0,1,.16.91,2.85,2.85,0,0,1-1,1c-.2.12-.36.23-.34.52a6.81,6.81,0,0,1-1.07,4,3.9,3.9,0,0,0,2-.56C37,41.91,38.56,39.67,40,37.28A2.63,2.63,0,0,0,40.42,36a3.66,3.66,0,0,0-2.15-3.66,2.39,2.39,0,0,1-1.45-2.47,3.19,3.19,0,0,0-2.92-3.55,3.14,3.14,0,0,0-3.35,3c-.05.43-.2.77-.69.79s-.68-.27-.72-.73A3.33,3.33,0,0,0,28.75,28a3.14,3.14,0,0,0-5.5-.06c-.27.41-.59.7-1.07.4s-.36-.73-.11-1.14A4.44,4.44,0,0,1,25.85,25a4.51,4.51,0,0,1,4,2.08c.18-.22.33-.41.5-.59A4.31,4.31,0,0,1,34.39,25a4.52,4.52,0,0,1,3.82,4.76c0,.46-.06.94.45,1.19a7.54,7.54,0,0,1,2.26,1.72,15.85,15.85,0,0,0-1.49-6.05,3.76,3.76,0,0,1-.33-2.29,5.32,5.32,0,0,0-.19-2.57c-.73-1.87-1.78-3.59-2.47-5.48-.13-.35-.31-.33-.54-.08a7.78,7.78,0,0,0-1.1,1.57c-.68,1.24-1,2.7-2.22,3.64-.42.32-.84.48-1.16,0-.15-.21-.25-.47-.55-.38s-.15.42-.18.64c-.05.42-.24.71-.67.72a.6.6,0,0,1-.69-.67c.1-.77-.33-.73-.85-.68-1.42.16-1.94-.16-2.45-1.47a11.65,11.65,0,0,0-1.8-3.28c-.29-.35-.53-.5-.74.08a46,46,0,0,1-2,4.46,5.88,5.88,0,0,0-.59,3.05c0,.43.06.86.11,1.29a1.67,1.67,0,0,1-.23,1A18.15,18.15,0,0,0,19,32.4,7.38,7.38,0,0,1,21,31a1,1,0,0,0,.52-1,5.16,5.16,0,0,1,0-.54c0-.43.2-.78.68-.8s.67.3.73.74a2.56,2.56,0,0,1-1.54,3,4.54,4.54,0,0,0-.69.45,3,3,0,0,0-.92,3.81,18.06,18.06,0,0,0,3,4.36c.18.2.3.37.66.14s.9.08,1,.6c0,.18,0,.37,0,.55s.24.25.39.34.13-.06.16-.13a.66.66,0,0,1,.9-.49c.43.13.5.5.46.88a.53.53,0,0,0,.49.66Zm1.75-4.37a3,3,0,0,1-.71.17c-.57,0-.67.29-.61.77a6.41,6.41,0,0,0,.56,2.1,1.67,1.67,0,0,0,2,.82c1-.3,1.16-1.21,1.37-2,.37-1.48.32-1.53-1.18-1.79-.15.53.25,1.42-.71,1.43S29.41,39.93,29.26,39.35Z"/><path class="cls-2" d="M22.32,22.58a4.48,4.48,0,0,1,.42-1.69,14.58,14.58,0,0,0,.88-1.77.44.44,0,0,1,.44-.36c.22,0,.3.18.39.34l0,0c1.19,2.68,1.36,2-.82,3.38l-.63.41c-.17.12-.32.29-.55.2S22.39,22.73,22.32,22.58Z"/><path class="cls-2" d="M37.66,22.69c0,.11.08.32-.12.43s-.34,0-.5-.11c-.65-.42-1.29-.84-1.95-1.25a.68.68,0,0,1-.32-1c.27-.55.52-1.12.79-1.67.15-.32.51-.51.67-.15C36.77,20.13,37.69,21.2,37.66,22.69Z"/><path class="cls-2" d="M35.88,34.7c-.15.56-.31,1.22-.52,1.86a.67.67,0,0,1-1.28-.4c.14-.62.28-1.23.47-1.84a.62.62,0,0,1,.74-.45C35.66,33.94,35.87,34.2,35.88,34.7Z"/><path class="cls-2" d="M27,29.46a1,1,0,0,1-1,1.07,1.05,1.05,0,0,1,0-2.1A1,1,0,0,1,27,29.46Z"/><path class="cls-2" d="M35.06,29.46a1.05,1.05,0,0,1-1,1.07,1,1,0,1,1,1-1.07Z"/></g></g></svg>