<svg id="Слой_1" data-name="Слой 1" xmlns="http://www.w3.org/2000/svg" viewBox="0 0 30 30"><defs><style>.cls-1{fill:#f4b51e;}.cls-2,.cls-3{fill:#fff;}.cls-2{fill-rule:evenodd;}</style></defs><circle class="cls-1" cx="15" cy="15" r="15"/><path class="cls-2" d="M14.85,10.77a3.89,3.89,0,1,0,3.89,3.89A3.89,3.89,0,0,0,14.85,10.77Zm-2.33,3.89a2.33,2.33,0,1,0,2.33-2.33A2.33,2.33,0,0,0,12.52,14.66Z"/><path class="cls-3" d="M19.51,9.22a.76.76,0,0,0-.77.77.77.77,0,0,0,.77.78.78.78,0,0,0,.78-.78A.77.77,0,0,0,19.51,9.22Z"/><path class="cls-2" d="M9.41,6.11A3.11,3.11,0,0,0,6.3,9.22V20.1a3.11,3.11,0,0,0,3.11,3.11H20.29A3.11,3.11,0,0,0,23.4,20.1V9.22a3.11,3.11,0,0,0-3.11-3.11ZM20.29,7.66H9.41A1.56,1.56,0,0,0,7.85,9.22V20.1a1.55,1.55,0,0,0,1.56,1.55H20.29a1.55,1.55,0,0,0,1.56-1.55V9.22A1.56,1.56,0,0,0,20.29,7.66Z"/></svg>