<svg xmlns="http://www.w3.org/2000/svg" viewBox="0 0 60 60"><defs><style>.cls-1{fill:#f3b520;}.cls-2{fill:#2c2922;}</style></defs><g id="Слой_2" data-name="Слой 2"><g id="Слой_1-2" data-name="Слой 1"><circle class="cls-1" cx="30" cy="30" r="30"/><path class="cls-2" d="M30,17.1a12.9,12.9,0,1,1-12.9,13A12.86,12.86,0,0,1,30,17.1Zm-7.74,4.2c0,.06,0,.09,0,.1l.33.23A9.5,9.5,0,0,1,27.44,30c0,.8.23,1,.91,1,1,0,1,.05,1-1V25a.75.75,0,0,1,.41-.79.53.53,0,0,1,.58.08,1,1,0,0,1,.29.87v4.51c0,1.45.15,1.56,1.58,1.26.29-.06.36-.17.36-.44a9.44,9.44,0,0,1,4.76-8.78c.49-.31.33-.44,0-.7a11.83,11.83,0,0,0-6.29-2.59c-.32,0-.44.05-.44.39,0,.71,0,1.42,0,2.12,0,.44-.05.88-.6.9s-.68-.43-.68-.9V18.77c0-.26,0-.43-.37-.39A11.46,11.46,0,0,0,22.26,21.3Zm-3.92,8.46a11.64,11.64,0,0,0,2.59,7.56c.18.24.34.37.67.19a8.69,8.69,0,0,0,4.23-5.06c.14-.41,0-.5-.39-.55-.63-.07-1.25-.22-1.88-.34-.41-.08-.7-.31-.6-.74s.44-.58.9-.49,1.21.22,1.81.34c.37.08.52,0,.52-.44a8.38,8.38,0,0,0-4.48-7.67c-.38-.22-.58-.15-.84.17a12.17,12.17,0,0,0-2.34,5.11.58.58,0,0,0,.36.76c.5.22,1,.47,1.48.69s.87.36.64.92-.71.43-1.15.23Zm15.48-.06c0,.21,0,.42,0,.62s.1.41.4.36a21.49,21.49,0,0,0,7-2.13.48.48,0,0,0,.31-.59A12,12,0,0,0,39,22.63c-.2-.24-.35-.29-.63-.13A8.45,8.45,0,0,0,33.82,29.7ZM29.36,37V33.86c0-1.67,0-1.66-1.68-1.7-.32,0-.47.05-.58.4a9.62,9.62,0,0,1-4.53,5.82c-.33.19-.36.29-.05.56a11.81,11.81,0,0,0,6.39,2.68c.37,0,.46-.09.46-.44C29.35,39.79,29.36,38.4,29.36,37Zm1.28-.08c0,1.41,0,2.83,0,4.24,0,.33.05.5.45.45a12,12,0,0,0,6.23-2.55c.39-.31.51-.47,0-.78a9.44,9.44,0,0,1-4.08-4.81c-.54-1.38-.53-1.37-2-1.29-.41,0-.56.14-.55.56C30.65,34.14,30.64,35.54,30.64,36.93Zm11-7.11a1,1,0,0,0-.23,0,22,22,0,0,1-7,2.05c-.45.06-.35.29-.26.57a8.5,8.5,0,0,0,4.18,5,.44.44,0,0,0,.67-.13A11.68,11.68,0,0,0,41.65,29.82Z"/></g></g></svg>