<svg xmlns="http://www.w3.org/2000/svg" viewBox="0 0 60 60"><defs><style>.cls-1{fill:#f3b520;}.cls-2{fill:#2a2722;}</style></defs><g id="Слой_2" data-name="Слой 2"><g id="Слой_1-2" data-name="Слой 1"><circle class="cls-1" cx="30" cy="30" r="30"/><path class="cls-2" d="M18.7,23.46l.13,0a1.35,1.35,0,0,0,1.4-1.37,6,6,0,0,1,4.28-5.26c.28-.09.33-.25.33-.5a7.47,7.47,0,0,1,0-1.16.65.65,0,0,1,.74-.65.61.61,0,0,1,.63.67c-.21,1.2.34,1.6,1.44,1.77a3.73,3.73,0,0,1,2,1.21c.24.24.37.23.61,0a5.28,5.28,0,0,1,3-1.48c.42-.06.53-.22.5-.61a5.13,5.13,0,0,1,0-1,.63.63,0,0,1,.7-.6.67.67,0,0,1,.66.59s0,0,0,.07c-.31,1.26.45,1.66,1.45,2.17a6.29,6.29,0,0,1,3.24,5.19c0,.21-.09.53.14.63a5.26,5.26,0,0,0,1.18.31c.19,0,.16-.19.16-.32s0-.55,0-.82c0-.45.19-.77.68-.78s.71.34.71.82,0,1.05,0,1.57a.89.89,0,0,0,.31.72,7.38,7.38,0,0,1-1.45,11.22,1,1,0,0,0-.54.84,9.68,9.68,0,0,1-9.8,8.69A20.07,20.07,0,0,1,26,45.08a9.67,9.67,0,0,1-7-8.34.77.77,0,0,0-.43-.7c-4-2.18-4.92-8.36-1.58-11.41a.74.74,0,0,0,.26-.66c0-.53,0-1.06,0-1.58s.21-.82.74-.79.66.35.67.79ZM30,44h1a8.28,8.28,0,0,0,8.75-8.14.9.9,0,0,1,.58-.85,5.77,5.77,0,0,0,3.31-5.48c.06-2.89-2-5-4.3-5-.54,0-.83-.31-.8-.88a6.42,6.42,0,0,0-.3-2.3c-1.1-3.42-4.76-4.44-7.18-2-1.05,1.05-1.05,1.05-2.12,0a4.06,4.06,0,0,0-6.44.61,5.84,5.84,0,0,0-1,3.49c0,.92-.16,1.1-1.05,1.15a3.9,3.9,0,0,0-3,1.65A6,6,0,0,0,19.6,35a1.16,1.16,0,0,1,.79,1.13,8.05,8.05,0,0,0,3.85,6.66A9.32,9.32,0,0,0,30,44Z"/><path class="cls-2" d="M27.21,40.69a3.5,3.5,0,0,1-1.65-.37c-.4-.19-.62-.5-.42-.94a.65.65,0,0,1,.92-.34,2.73,2.73,0,0,0,2.73-.24,2.4,2.4,0,0,1,2.59,0,2.8,2.8,0,0,0,1.82.48A1.93,1.93,0,0,0,35,37.74a2.36,2.36,0,0,0-1.18-2.55,3.88,3.88,0,0,1-1.56-1.5.67.67,0,0,1,.17-1,.65.65,0,0,1,1,.26,3.14,3.14,0,0,0,1.23,1.14A3.74,3.74,0,0,1,36,38.93a3.55,3.55,0,0,1-4.76,1.36,2.16,2.16,0,0,0-2.41,0A2.89,2.89,0,0,1,27.21,40.69Z"/><path class="cls-2" d="M24,30.67a3.29,3.29,0,0,1-.55,1.74,2.49,2.49,0,0,1-3.62.8A4.45,4.45,0,0,1,18.32,28a2.59,2.59,0,0,1,4.42-.79A4.61,4.61,0,0,1,24,30.67Zm-4.55-1.06a2.83,2.83,0,0,0,1,2.3,1.13,1.13,0,0,0,1.94-.42A2.91,2.91,0,0,0,22.28,29c-.39-.86-1.16-1.41-1.76-1.28S19.42,28.59,19.42,29.61Z"/><path class="cls-2" d="M36.76,23.32a4.24,4.24,0,0,1-1.09,3.14,2.4,2.4,0,0,1-3.88-.28,4.56,4.56,0,0,1,.49-5.46,2.39,2.39,0,0,1,3.83.39A3.73,3.73,0,0,1,36.76,23.32Zm-1.39.07A2.34,2.34,0,0,0,35,22a1,1,0,0,0-1.85-.17,3.22,3.22,0,0,0-.27,3.52,1.05,1.05,0,0,0,1.82.12A3,3,0,0,0,35.37,23.39Z"/><path class="cls-2" d="M42,29.61a3.66,3.66,0,0,1-.31,1.67.68.68,0,1,1-1.28-.46,3.2,3.2,0,0,0,0-2.28,1.17,1.17,0,0,0-2-.43,3.09,3.09,0,0,0-.79,3.21,1.2,1.2,0,0,0,2,.67.94.94,0,0,1,.62-.22.61.61,0,0,1,.55.45.73.73,0,0,1-.23.8,2.5,2.5,0,0,1-3.61-.24,4.28,4.28,0,0,1,1.42-6.27A2.7,2.7,0,0,1,42,28.93C42,29.16,42,29.39,42,29.61Z"/><path class="cls-2" d="M23.25,23.43a4.31,4.31,0,0,1,0-.54.64.64,0,0,1,.74-.63.63.63,0,0,1,.62.69,5.66,5.66,0,0,0,.09,1.36,3,3,0,0,0,.45,1,1.08,1.08,0,0,0,2-.12,3.08,3.08,0,0,0-.25-3.25,1,1,0,0,0-1.78-.18c-.36.33-.72.44-1.07.06s-.22-.69.08-1a2.35,2.35,0,0,1,3.16-.4,4.37,4.37,0,0,1,.52,6.22,2.31,2.31,0,0,1-3.27.09A4.18,4.18,0,0,1,23.25,23.43Z"/><path class="cls-2" d="M23.69,37.26a3.62,3.62,0,0,1,1.75-3.15,3.82,3.82,0,0,0,1.68-2.06,3.32,3.32,0,0,1,2.45-2.27,3,3,0,0,1,3.11,1.64.67.67,0,0,1-.26.89.62.62,0,0,1-.86-.13,4.08,4.08,0,0,1-.25-.33,1.44,1.44,0,0,0-2.57.11,11.75,11.75,0,0,0-.64,1.28,4.14,4.14,0,0,1-1.75,1.95,2.28,2.28,0,0,0-1.12,2.86c.16.5.11.89-.39,1.07s-.79-.21-.94-.65A3.12,3.12,0,0,1,23.69,37.26Z"/></g></g></svg>