<svg id="Слой_1" data-name="Слой 1" xmlns="http://www.w3.org/2000/svg" viewBox="0 0 30 30"><defs><style>.cls-1{fill:#f4b51e;}.cls-2{fill:#fff;}</style></defs><circle class="cls-1" cx="15" cy="15" r="15"/><path class="cls-2" d="M24.25,9c-.72-.85-2.05-1.2-4.6-1.2H10.41c-2.61,0-4,.37-4.68,1.29s-.7,2.2-.7,4v3.46c0,3.53.83,5.31,5.38,5.31h9.24c2.21,0,3.44-.31,4.22-1.07s1.16-2,1.16-4.24V13.09C25,11.17,25,9.85,24.25,9ZM17.87,15.3l-4.19,2.19a.66.66,0,0,1-.3.07.69.69,0,0,1-.34-.09.66.66,0,0,1-.31-.55V12.54A.65.65,0,0,1,13,12a.69.69,0,0,1,.64,0l4.19,2.18a.65.65,0,0,1,0,1.15Z"/></svg>